<mxfile host="app.diagrams.net" modified="2022-11-03T08:49:29.871Z" agent="5.0 (Windows)" etag="6n6StQW1kb8TrZOG9a2N" version="20.5.1" type="github">
  <diagram id="C5RBs43oDa-KdzZeNtuy" name="Page-1">
    <mxGraphModel dx="1298" dy="660" grid="1" gridSize="10" guides="1" tooltips="1" connect="1" arrows="1" fold="1" page="1" pageScale="1" pageWidth="2339" pageHeight="3300" math="0" shadow="0">
      <root>
        <mxCell id="WIyWlLk6GJQsqaUBKTNV-0" />
        <mxCell id="WIyWlLk6GJQsqaUBKTNV-1" parent="WIyWlLk6GJQsqaUBKTNV-0" />
        <mxCell id="pNnEN6fRzk_LjwezDTRE-0" value="Admin Log in Page" style="rounded=1;whiteSpace=wrap;html=1;" vertex="1" parent="WIyWlLk6GJQsqaUBKTNV-1">
          <mxGeometry x="1160" y="40" width="120" height="40" as="geometry" />
        </mxCell>
        <mxCell id="pNnEN6fRzk_LjwezDTRE-100" value="" style="edgeStyle=orthogonalEdgeStyle;rounded=0;orthogonalLoop=1;jettySize=auto;html=1;entryX=0.5;entryY=0;entryDx=0;entryDy=0;" edge="1" parent="WIyWlLk6GJQsqaUBKTNV-1" source="pNnEN6fRzk_LjwezDTRE-2" target="pNnEN6fRzk_LjwezDTRE-113">
          <mxGeometry relative="1" as="geometry">
            <mxPoint x="1220.0000000000005" y="240" as="targetPoint" />
          </mxGeometry>
        </mxCell>
        <mxCell id="pNnEN6fRzk_LjwezDTRE-106" style="edgeStyle=orthogonalEdgeStyle;rounded=0;orthogonalLoop=1;jettySize=auto;html=1;entryX=1;entryY=0.5;entryDx=0;entryDy=0;" edge="1" parent="WIyWlLk6GJQsqaUBKTNV-1" source="pNnEN6fRzk_LjwezDTRE-2" target="pNnEN6fRzk_LjwezDTRE-14">
          <mxGeometry relative="1" as="geometry" />
        </mxCell>
        <mxCell id="pNnEN6fRzk_LjwezDTRE-116" value="" style="edgeStyle=orthogonalEdgeStyle;rounded=0;orthogonalLoop=1;jettySize=auto;html=1;" edge="1" parent="WIyWlLk6GJQsqaUBKTNV-1" source="pNnEN6fRzk_LjwezDTRE-2" target="pNnEN6fRzk_LjwezDTRE-115">
          <mxGeometry relative="1" as="geometry" />
        </mxCell>
        <mxCell id="pNnEN6fRzk_LjwezDTRE-2" value="Dashboard" style="rounded=1;whiteSpace=wrap;html=1;" vertex="1" parent="WIyWlLk6GJQsqaUBKTNV-1">
          <mxGeometry x="1160" y="160" width="120" height="40" as="geometry" />
        </mxCell>
        <mxCell id="pNnEN6fRzk_LjwezDTRE-3" value="" style="endArrow=classic;html=1;rounded=0;exitX=0.5;exitY=1;exitDx=0;exitDy=0;entryX=0.5;entryY=0;entryDx=0;entryDy=0;" edge="1" parent="WIyWlLk6GJQsqaUBKTNV-1" source="pNnEN6fRzk_LjwezDTRE-0" target="pNnEN6fRzk_LjwezDTRE-2">
          <mxGeometry width="50" height="50" relative="1" as="geometry">
            <mxPoint x="1200" y="280" as="sourcePoint" />
            <mxPoint x="1250" y="230" as="targetPoint" />
          </mxGeometry>
        </mxCell>
        <mxCell id="pNnEN6fRzk_LjwezDTRE-101" value="" style="edgeStyle=orthogonalEdgeStyle;rounded=0;orthogonalLoop=1;jettySize=auto;html=1;exitX=0.5;exitY=1;exitDx=0;exitDy=0;" edge="1" parent="WIyWlLk6GJQsqaUBKTNV-1" source="pNnEN6fRzk_LjwezDTRE-113" target="pNnEN6fRzk_LjwezDTRE-31">
          <mxGeometry relative="1" as="geometry">
            <mxPoint x="1220.0000000000005" y="280" as="sourcePoint" />
          </mxGeometry>
        </mxCell>
        <mxCell id="pNnEN6fRzk_LjwezDTRE-102" style="edgeStyle=orthogonalEdgeStyle;rounded=0;orthogonalLoop=1;jettySize=auto;html=1;entryX=0.5;entryY=0;entryDx=0;entryDy=0;" edge="1" parent="WIyWlLk6GJQsqaUBKTNV-1">
          <mxGeometry relative="1" as="geometry">
            <mxPoint x="1160.0000000000005" y="259.9999999999999" as="sourcePoint" />
            <mxPoint x="940" y="320" as="targetPoint" />
          </mxGeometry>
        </mxCell>
        <mxCell id="pNnEN6fRzk_LjwezDTRE-103" style="edgeStyle=orthogonalEdgeStyle;rounded=0;orthogonalLoop=1;jettySize=auto;html=1;entryX=0.5;entryY=0;entryDx=0;entryDy=0;exitX=0;exitY=0.5;exitDx=0;exitDy=0;" edge="1" parent="WIyWlLk6GJQsqaUBKTNV-1" source="pNnEN6fRzk_LjwezDTRE-113" target="pNnEN6fRzk_LjwezDTRE-41">
          <mxGeometry relative="1" as="geometry">
            <mxPoint x="1160.0000000000005" y="259.9999999999999" as="sourcePoint" />
          </mxGeometry>
        </mxCell>
        <mxCell id="pNnEN6fRzk_LjwezDTRE-105" style="edgeStyle=orthogonalEdgeStyle;rounded=0;orthogonalLoop=1;jettySize=auto;html=1;entryX=0.5;entryY=0;entryDx=0;entryDy=0;exitX=1;exitY=0.5;exitDx=0;exitDy=0;" edge="1" parent="WIyWlLk6GJQsqaUBKTNV-1" source="pNnEN6fRzk_LjwezDTRE-113" target="pNnEN6fRzk_LjwezDTRE-32">
          <mxGeometry relative="1" as="geometry">
            <mxPoint x="1280.0000000000005" y="259.9999999999999" as="sourcePoint" />
          </mxGeometry>
        </mxCell>
        <mxCell id="pNnEN6fRzk_LjwezDTRE-22" value="" style="edgeStyle=orthogonalEdgeStyle;rounded=0;orthogonalLoop=1;jettySize=auto;html=1;exitX=1;exitY=0.25;exitDx=0;exitDy=0;" edge="1" parent="WIyWlLk6GJQsqaUBKTNV-1" target="pNnEN6fRzk_LjwezDTRE-12">
          <mxGeometry relative="1" as="geometry">
            <mxPoint x="120" y="150" as="sourcePoint" />
          </mxGeometry>
        </mxCell>
        <mxCell id="pNnEN6fRzk_LjwezDTRE-27" value="" style="edgeStyle=orthogonalEdgeStyle;rounded=0;orthogonalLoop=1;jettySize=auto;html=1;" edge="1" parent="WIyWlLk6GJQsqaUBKTNV-1" target="pNnEN6fRzk_LjwezDTRE-26">
          <mxGeometry relative="1" as="geometry">
            <mxPoint x="240" y="160" as="sourcePoint" />
          </mxGeometry>
        </mxCell>
        <mxCell id="pNnEN6fRzk_LjwezDTRE-14" value="Specific Client" style="rounded=1;whiteSpace=wrap;html=1;" vertex="1" parent="WIyWlLk6GJQsqaUBKTNV-1">
          <mxGeometry x="445" y="180" width="120" height="40" as="geometry" />
        </mxCell>
        <mxCell id="pNnEN6fRzk_LjwezDTRE-17" value="Salesperson Schedule" style="rounded=1;whiteSpace=wrap;html=1;" vertex="1" parent="WIyWlLk6GJQsqaUBKTNV-1">
          <mxGeometry x="600" y="80" width="120" height="40" as="geometry" />
        </mxCell>
        <mxCell id="pNnEN6fRzk_LjwezDTRE-21" value="Reject Lead" style="shape=parallelogram;perimeter=parallelogramPerimeter;whiteSpace=wrap;html=1;fixedSize=1;" vertex="1" parent="WIyWlLk6GJQsqaUBKTNV-1">
          <mxGeometry x="1200" y="445" width="95" height="40" as="geometry" />
        </mxCell>
        <mxCell id="pNnEN6fRzk_LjwezDTRE-24" value="&lt;div&gt;Add Admin&lt;/div&gt;&lt;div&gt;*password*&lt;br&gt;&lt;/div&gt;" style="shape=parallelogram;perimeter=parallelogramPerimeter;whiteSpace=wrap;html=1;fixedSize=1;" vertex="1" parent="WIyWlLk6GJQsqaUBKTNV-1">
          <mxGeometry x="1710" y="40" width="95" height="40" as="geometry" />
        </mxCell>
        <mxCell id="pNnEN6fRzk_LjwezDTRE-28" value="Reject Leads&lt;br&gt;*Submit*" style="rounded=1;whiteSpace=wrap;html=1;" vertex="1" parent="WIyWlLk6GJQsqaUBKTNV-1">
          <mxGeometry x="1200" y="515" width="90" height="40" as="geometry" />
        </mxCell>
        <mxCell id="pNnEN6fRzk_LjwezDTRE-31" value="Processed Leads" style="rounded=1;whiteSpace=wrap;html=1;" vertex="1" parent="WIyWlLk6GJQsqaUBKTNV-1">
          <mxGeometry x="1160" y="320" width="120" height="40" as="geometry" />
        </mxCell>
        <mxCell id="pNnEN6fRzk_LjwezDTRE-111" style="edgeStyle=orthogonalEdgeStyle;rounded=0;orthogonalLoop=1;jettySize=auto;html=1;entryX=0.5;entryY=0;entryDx=0;entryDy=0;" edge="1" parent="WIyWlLk6GJQsqaUBKTNV-1" source="pNnEN6fRzk_LjwezDTRE-117" target="pNnEN6fRzk_LjwezDTRE-109">
          <mxGeometry relative="1" as="geometry">
            <mxPoint x="950" y="400" as="sourcePoint" />
          </mxGeometry>
        </mxCell>
        <mxCell id="pNnEN6fRzk_LjwezDTRE-112" style="edgeStyle=orthogonalEdgeStyle;rounded=0;orthogonalLoop=1;jettySize=auto;html=1;entryX=0.5;entryY=0;entryDx=0;entryDy=0;" edge="1" parent="WIyWlLk6GJQsqaUBKTNV-1" target="pNnEN6fRzk_LjwezDTRE-110">
          <mxGeometry relative="1" as="geometry">
            <mxPoint x="930" y="420" as="sourcePoint" />
          </mxGeometry>
        </mxCell>
        <mxCell id="pNnEN6fRzk_LjwezDTRE-32" value="Unprocessed Leads" style="rounded=1;whiteSpace=wrap;html=1;" vertex="1" parent="WIyWlLk6GJQsqaUBKTNV-1">
          <mxGeometry x="1440" y="320" width="120" height="40" as="geometry" />
        </mxCell>
        <mxCell id="pNnEN6fRzk_LjwezDTRE-107" style="edgeStyle=orthogonalEdgeStyle;rounded=0;orthogonalLoop=1;jettySize=auto;html=1;entryX=0.5;entryY=1;entryDx=0;entryDy=0;" edge="1" parent="WIyWlLk6GJQsqaUBKTNV-1" source="pNnEN6fRzk_LjwezDTRE-41" target="pNnEN6fRzk_LjwezDTRE-14">
          <mxGeometry relative="1" as="geometry">
            <Array as="points">
              <mxPoint x="505" y="340" />
            </Array>
          </mxGeometry>
        </mxCell>
        <mxCell id="pNnEN6fRzk_LjwezDTRE-41" value="Clients" style="rounded=1;whiteSpace=wrap;html=1;" vertex="1" parent="WIyWlLk6GJQsqaUBKTNV-1">
          <mxGeometry x="600" y="320" width="120" height="40" as="geometry" />
        </mxCell>
        <mxCell id="pNnEN6fRzk_LjwezDTRE-42" value="Add Client" style="shape=parallelogram;perimeter=parallelogramPerimeter;whiteSpace=wrap;html=1;fixedSize=1;" vertex="1" parent="WIyWlLk6GJQsqaUBKTNV-1">
          <mxGeometry x="1780" y="170" width="100" height="40" as="geometry" />
        </mxCell>
        <mxCell id="pNnEN6fRzk_LjwezDTRE-43" value="Client Details&lt;br&gt;*Submit*" style="rounded=1;whiteSpace=wrap;html=1;" vertex="1" parent="WIyWlLk6GJQsqaUBKTNV-1">
          <mxGeometry x="1890" y="170" width="90" height="40" as="geometry" />
        </mxCell>
        <mxCell id="pNnEN6fRzk_LjwezDTRE-53" value="&lt;div&gt;Admin Details&lt;/div&gt;&lt;div&gt;*Submit*&lt;br&gt;&lt;/div&gt;" style="rounded=1;whiteSpace=wrap;html=1;" vertex="1" parent="WIyWlLk6GJQsqaUBKTNV-1">
          <mxGeometry x="1814" y="40" width="76" height="40" as="geometry" />
        </mxCell>
        <mxCell id="pNnEN6fRzk_LjwezDTRE-55" value="&lt;div&gt;Complete&lt;/div&gt;&lt;div&gt;Thank you&lt;br&gt;&lt;/div&gt;" style="rounded=1;whiteSpace=wrap;html=1;" vertex="1" parent="WIyWlLk6GJQsqaUBKTNV-1">
          <mxGeometry x="1890" y="80" width="76" height="40" as="geometry" />
        </mxCell>
        <mxCell id="pNnEN6fRzk_LjwezDTRE-58" value="&lt;div&gt;Complete&lt;/div&gt;&lt;div&gt;Thank You&lt;br&gt;&lt;/div&gt;" style="rounded=1;whiteSpace=wrap;html=1;" vertex="1" parent="WIyWlLk6GJQsqaUBKTNV-1">
          <mxGeometry x="1900" y="230" width="90" height="40" as="geometry" />
        </mxCell>
        <mxCell id="pNnEN6fRzk_LjwezDTRE-62" value="Admin Log in Page" style="rounded=1;whiteSpace=wrap;html=1;" vertex="1" parent="WIyWlLk6GJQsqaUBKTNV-1">
          <mxGeometry x="330" y="1370" width="90" height="40" as="geometry" />
        </mxCell>
        <mxCell id="pNnEN6fRzk_LjwezDTRE-63" style="edgeStyle=orthogonalEdgeStyle;rounded=0;orthogonalLoop=1;jettySize=auto;html=1;exitX=0.5;exitY=1;exitDx=0;exitDy=0;entryX=0.5;entryY=0;entryDx=0;entryDy=0;" edge="1" parent="WIyWlLk6GJQsqaUBKTNV-1" source="pNnEN6fRzk_LjwezDTRE-64">
          <mxGeometry relative="1" as="geometry">
            <mxPoint x="375" y="1670" as="targetPoint" />
          </mxGeometry>
        </mxCell>
        <mxCell id="pNnEN6fRzk_LjwezDTRE-64" value="Dashboard" style="rounded=1;whiteSpace=wrap;html=1;" vertex="1" parent="WIyWlLk6GJQsqaUBKTNV-1">
          <mxGeometry x="330" y="1610" width="90" height="40" as="geometry" />
        </mxCell>
        <mxCell id="pNnEN6fRzk_LjwezDTRE-65" value="" style="endArrow=classic;html=1;rounded=0;exitX=0.5;exitY=1;exitDx=0;exitDy=0;entryX=0.5;entryY=0;entryDx=0;entryDy=0;" edge="1" parent="WIyWlLk6GJQsqaUBKTNV-1" source="pNnEN6fRzk_LjwezDTRE-62" target="pNnEN6fRzk_LjwezDTRE-64">
          <mxGeometry width="50" height="50" relative="1" as="geometry">
            <mxPoint x="370" y="1610" as="sourcePoint" />
            <mxPoint x="420" y="1560" as="targetPoint" />
          </mxGeometry>
        </mxCell>
        <mxCell id="pNnEN6fRzk_LjwezDTRE-66" value="" style="endArrow=classic;html=1;rounded=0;exitX=1;exitY=0.75;exitDx=0;exitDy=0;entryX=0;entryY=0.5;entryDx=0;entryDy=0;" edge="1" parent="WIyWlLk6GJQsqaUBKTNV-1" source="pNnEN6fRzk_LjwezDTRE-64" target="pNnEN6fRzk_LjwezDTRE-69">
          <mxGeometry width="50" height="50" relative="1" as="geometry">
            <mxPoint x="370" y="1610" as="sourcePoint" />
            <mxPoint x="470.0000000000001" y="1620" as="targetPoint" />
            <Array as="points">
              <mxPoint x="460" y="1640" />
              <mxPoint x="460" y="1630" />
              <mxPoint x="495" y="1630" />
            </Array>
          </mxGeometry>
        </mxCell>
        <mxCell id="pNnEN6fRzk_LjwezDTRE-67" style="edgeStyle=orthogonalEdgeStyle;rounded=0;orthogonalLoop=1;jettySize=auto;html=1;exitX=1;exitY=0.5;exitDx=0;exitDy=0;entryX=0;entryY=0.5;entryDx=0;entryDy=0;" edge="1" parent="WIyWlLk6GJQsqaUBKTNV-1" source="pNnEN6fRzk_LjwezDTRE-69" target="pNnEN6fRzk_LjwezDTRE-79">
          <mxGeometry relative="1" as="geometry">
            <Array as="points">
              <mxPoint x="790" y="1630" />
              <mxPoint x="790" y="1560" />
            </Array>
          </mxGeometry>
        </mxCell>
        <mxCell id="pNnEN6fRzk_LjwezDTRE-68" value="" style="edgeStyle=orthogonalEdgeStyle;rounded=0;orthogonalLoop=1;jettySize=auto;html=1;" edge="1" parent="WIyWlLk6GJQsqaUBKTNV-1" source="pNnEN6fRzk_LjwezDTRE-69" target="pNnEN6fRzk_LjwezDTRE-87">
          <mxGeometry relative="1" as="geometry" />
        </mxCell>
        <mxCell id="pNnEN6fRzk_LjwezDTRE-69" value="Drawer" style="rounded=1;whiteSpace=wrap;html=1;" vertex="1" parent="WIyWlLk6GJQsqaUBKTNV-1">
          <mxGeometry x="480" y="1610" width="90" height="40" as="geometry" />
        </mxCell>
        <mxCell id="pNnEN6fRzk_LjwezDTRE-70" style="edgeStyle=orthogonalEdgeStyle;rounded=0;orthogonalLoop=1;jettySize=auto;html=1;entryX=0;entryY=0.5;entryDx=0;entryDy=0;exitX=0.75;exitY=1;exitDx=0;exitDy=0;" edge="1" parent="WIyWlLk6GJQsqaUBKTNV-1" source="pNnEN6fRzk_LjwezDTRE-71" target="pNnEN6fRzk_LjwezDTRE-74">
          <mxGeometry relative="1" as="geometry">
            <mxPoint x="430" y="1690" as="sourcePoint" />
            <Array as="points">
              <mxPoint x="398" y="1720" />
              <mxPoint x="430" y="1720" />
              <mxPoint x="430" y="1760" />
            </Array>
          </mxGeometry>
        </mxCell>
        <mxCell id="pNnEN6fRzk_LjwezDTRE-71" value="Specific Client" style="rounded=1;whiteSpace=wrap;html=1;" vertex="1" parent="WIyWlLk6GJQsqaUBKTNV-1">
          <mxGeometry x="330" y="1670" width="90" height="40" as="geometry" />
        </mxCell>
        <mxCell id="pNnEN6fRzk_LjwezDTRE-72" value="Salesperson Schedule" style="rounded=1;whiteSpace=wrap;html=1;" vertex="1" parent="WIyWlLk6GJQsqaUBKTNV-1">
          <mxGeometry x="330" y="1740" width="90" height="40" as="geometry" />
        </mxCell>
        <mxCell id="pNnEN6fRzk_LjwezDTRE-73" value="" style="edgeStyle=orthogonalEdgeStyle;rounded=0;orthogonalLoop=1;jettySize=auto;html=1;" edge="1" parent="WIyWlLk6GJQsqaUBKTNV-1" source="pNnEN6fRzk_LjwezDTRE-74" target="pNnEN6fRzk_LjwezDTRE-78">
          <mxGeometry relative="1" as="geometry" />
        </mxCell>
        <mxCell id="pNnEN6fRzk_LjwezDTRE-74" value="Reject Lead" style="shape=parallelogram;perimeter=parallelogramPerimeter;whiteSpace=wrap;html=1;fixedSize=1;" vertex="1" parent="WIyWlLk6GJQsqaUBKTNV-1">
          <mxGeometry x="445" y="1740" width="95" height="40" as="geometry" />
        </mxCell>
        <mxCell id="pNnEN6fRzk_LjwezDTRE-75" value="" style="edgeStyle=orthogonalEdgeStyle;rounded=0;orthogonalLoop=1;jettySize=auto;html=1;entryX=0;entryY=0.5;entryDx=0;entryDy=0;" edge="1" parent="WIyWlLk6GJQsqaUBKTNV-1" source="pNnEN6fRzk_LjwezDTRE-76" target="pNnEN6fRzk_LjwezDTRE-96">
          <mxGeometry relative="1" as="geometry">
            <mxPoint x="610" y="1570" as="targetPoint" />
          </mxGeometry>
        </mxCell>
        <mxCell id="pNnEN6fRzk_LjwezDTRE-76" value="&lt;div&gt;Add Admin&lt;/div&gt;&lt;div&gt;*password*&lt;br&gt;&lt;/div&gt;" style="shape=parallelogram;perimeter=parallelogramPerimeter;whiteSpace=wrap;html=1;fixedSize=1;" vertex="1" parent="WIyWlLk6GJQsqaUBKTNV-1">
          <mxGeometry x="495" y="1540" width="95" height="40" as="geometry" />
        </mxCell>
        <mxCell id="pNnEN6fRzk_LjwezDTRE-77" value="" style="endArrow=classic;html=1;rounded=0;exitX=1;exitY=0.25;exitDx=0;exitDy=0;" edge="1" parent="WIyWlLk6GJQsqaUBKTNV-1" source="pNnEN6fRzk_LjwezDTRE-64" target="pNnEN6fRzk_LjwezDTRE-76">
          <mxGeometry width="50" height="50" relative="1" as="geometry">
            <mxPoint x="490" y="1650" as="sourcePoint" />
            <mxPoint x="540" y="1600" as="targetPoint" />
            <Array as="points">
              <mxPoint x="440" y="1620" />
              <mxPoint x="440" y="1560" />
              <mxPoint x="460" y="1560" />
            </Array>
          </mxGeometry>
        </mxCell>
        <mxCell id="pNnEN6fRzk_LjwezDTRE-78" value="Reject Leads&lt;br&gt;*Submit*" style="rounded=1;whiteSpace=wrap;html=1;" vertex="1" parent="WIyWlLk6GJQsqaUBKTNV-1">
          <mxGeometry x="590" y="1740" width="90" height="40" as="geometry" />
        </mxCell>
        <mxCell id="pNnEN6fRzk_LjwezDTRE-79" value="Unprocessed Leads" style="rounded=1;whiteSpace=wrap;html=1;" vertex="1" parent="WIyWlLk6GJQsqaUBKTNV-1">
          <mxGeometry x="850" y="1540" width="90" height="40" as="geometry" />
        </mxCell>
        <mxCell id="pNnEN6fRzk_LjwezDTRE-80" value="Processed Leads" style="rounded=1;whiteSpace=wrap;html=1;" vertex="1" parent="WIyWlLk6GJQsqaUBKTNV-1">
          <mxGeometry x="856" y="1630" width="90" height="40" as="geometry" />
        </mxCell>
        <mxCell id="pNnEN6fRzk_LjwezDTRE-81" value="Rejected Leads" style="rounded=1;whiteSpace=wrap;html=1;" vertex="1" parent="WIyWlLk6GJQsqaUBKTNV-1">
          <mxGeometry x="856" y="1700" width="90" height="40" as="geometry" />
        </mxCell>
        <mxCell id="pNnEN6fRzk_LjwezDTRE-82" value="Rejected Leads" style="rounded=1;whiteSpace=wrap;html=1;" vertex="1" parent="WIyWlLk6GJQsqaUBKTNV-1">
          <mxGeometry x="856" y="1770" width="90" height="40" as="geometry" />
        </mxCell>
        <mxCell id="pNnEN6fRzk_LjwezDTRE-83" value="" style="endArrow=classic;html=1;rounded=0;entryX=0;entryY=0.5;entryDx=0;entryDy=0;" edge="1" parent="WIyWlLk6GJQsqaUBKTNV-1" target="pNnEN6fRzk_LjwezDTRE-80">
          <mxGeometry width="50" height="50" relative="1" as="geometry">
            <mxPoint x="830" y="1560" as="sourcePoint" />
            <mxPoint x="830" y="1660" as="targetPoint" />
            <Array as="points">
              <mxPoint x="830" y="1650" />
            </Array>
          </mxGeometry>
        </mxCell>
        <mxCell id="pNnEN6fRzk_LjwezDTRE-84" value="" style="endArrow=classic;html=1;rounded=0;entryX=0;entryY=0.5;entryDx=0;entryDy=0;" edge="1" parent="WIyWlLk6GJQsqaUBKTNV-1" target="pNnEN6fRzk_LjwezDTRE-81">
          <mxGeometry width="50" height="50" relative="1" as="geometry">
            <mxPoint x="820" y="1560" as="sourcePoint" />
            <mxPoint x="846" y="1650" as="targetPoint" />
            <Array as="points">
              <mxPoint x="820" y="1720" />
            </Array>
          </mxGeometry>
        </mxCell>
        <mxCell id="pNnEN6fRzk_LjwezDTRE-85" value="" style="endArrow=classic;html=1;rounded=0;entryX=0;entryY=0.5;entryDx=0;entryDy=0;" edge="1" parent="WIyWlLk6GJQsqaUBKTNV-1" target="pNnEN6fRzk_LjwezDTRE-82">
          <mxGeometry width="50" height="50" relative="1" as="geometry">
            <mxPoint x="810" y="1560" as="sourcePoint" />
            <mxPoint x="846" y="1720" as="targetPoint" />
            <Array as="points">
              <mxPoint x="810" y="1790" />
            </Array>
          </mxGeometry>
        </mxCell>
        <mxCell id="pNnEN6fRzk_LjwezDTRE-86" value="" style="edgeStyle=orthogonalEdgeStyle;rounded=0;orthogonalLoop=1;jettySize=auto;html=1;" edge="1" parent="WIyWlLk6GJQsqaUBKTNV-1" source="pNnEN6fRzk_LjwezDTRE-87" target="pNnEN6fRzk_LjwezDTRE-89">
          <mxGeometry relative="1" as="geometry" />
        </mxCell>
        <mxCell id="pNnEN6fRzk_LjwezDTRE-87" value="Clients" style="rounded=1;whiteSpace=wrap;html=1;" vertex="1" parent="WIyWlLk6GJQsqaUBKTNV-1">
          <mxGeometry x="480" y="1670" width="90" height="40" as="geometry" />
        </mxCell>
        <mxCell id="pNnEN6fRzk_LjwezDTRE-88" value="" style="edgeStyle=orthogonalEdgeStyle;rounded=0;orthogonalLoop=1;jettySize=auto;html=1;" edge="1" parent="WIyWlLk6GJQsqaUBKTNV-1" source="pNnEN6fRzk_LjwezDTRE-89" target="pNnEN6fRzk_LjwezDTRE-91">
          <mxGeometry relative="1" as="geometry" />
        </mxCell>
        <mxCell id="pNnEN6fRzk_LjwezDTRE-89" value="Add Client" style="shape=parallelogram;perimeter=parallelogramPerimeter;whiteSpace=wrap;html=1;fixedSize=1;" vertex="1" parent="WIyWlLk6GJQsqaUBKTNV-1">
          <mxGeometry x="590" y="1670" width="100" height="40" as="geometry" />
        </mxCell>
        <mxCell id="pNnEN6fRzk_LjwezDTRE-90" value="" style="edgeStyle=orthogonalEdgeStyle;rounded=0;orthogonalLoop=1;jettySize=auto;html=1;" edge="1" parent="WIyWlLk6GJQsqaUBKTNV-1" source="pNnEN6fRzk_LjwezDTRE-91" target="pNnEN6fRzk_LjwezDTRE-99">
          <mxGeometry relative="1" as="geometry" />
        </mxCell>
        <mxCell id="pNnEN6fRzk_LjwezDTRE-91" value="Client Details&lt;br&gt;*Submit*" style="rounded=1;whiteSpace=wrap;html=1;" vertex="1" parent="WIyWlLk6GJQsqaUBKTNV-1">
          <mxGeometry x="700" y="1670" width="90" height="40" as="geometry" />
        </mxCell>
        <mxCell id="pNnEN6fRzk_LjwezDTRE-92" value="" style="endArrow=classic;startArrow=classic;html=1;rounded=0;exitX=1;exitY=0.5;exitDx=0;exitDy=0;entryX=0;entryY=0.5;entryDx=0;entryDy=0;" edge="1" parent="WIyWlLk6GJQsqaUBKTNV-1" source="pNnEN6fRzk_LjwezDTRE-71" target="pNnEN6fRzk_LjwezDTRE-87">
          <mxGeometry width="50" height="50" relative="1" as="geometry">
            <mxPoint x="520" y="1710" as="sourcePoint" />
            <mxPoint x="570" y="1660" as="targetPoint" />
          </mxGeometry>
        </mxCell>
        <mxCell id="pNnEN6fRzk_LjwezDTRE-93" value="" style="endArrow=classic;startArrow=classic;html=1;rounded=0;entryX=0.459;entryY=1;entryDx=0;entryDy=0;entryPerimeter=0;exitX=0.459;exitY=-0.05;exitDx=0;exitDy=0;exitPerimeter=0;" edge="1" parent="WIyWlLk6GJQsqaUBKTNV-1" source="pNnEN6fRzk_LjwezDTRE-72" target="pNnEN6fRzk_LjwezDTRE-71">
          <mxGeometry width="50" height="50" relative="1" as="geometry">
            <mxPoint x="370" y="1740" as="sourcePoint" />
            <mxPoint x="420" y="1690" as="targetPoint" />
          </mxGeometry>
        </mxCell>
        <mxCell id="pNnEN6fRzk_LjwezDTRE-94" value="" style="edgeStyle=orthogonalEdgeStyle;rounded=0;orthogonalLoop=1;jettySize=auto;html=1;entryX=1;entryY=0.5;entryDx=0;entryDy=0;exitX=0;exitY=0.5;exitDx=0;exitDy=0;" edge="1" parent="WIyWlLk6GJQsqaUBKTNV-1" source="pNnEN6fRzk_LjwezDTRE-97" target="pNnEN6fRzk_LjwezDTRE-64">
          <mxGeometry relative="1" as="geometry">
            <mxPoint x="420" y="1620" as="targetPoint" />
            <Array as="points">
              <mxPoint x="450" y="1600" />
              <mxPoint x="450" y="1630" />
            </Array>
          </mxGeometry>
        </mxCell>
        <mxCell id="pNnEN6fRzk_LjwezDTRE-95" style="edgeStyle=orthogonalEdgeStyle;rounded=0;orthogonalLoop=1;jettySize=auto;html=1;entryX=0.561;entryY=-0.04;entryDx=0;entryDy=0;entryPerimeter=0;" edge="1" parent="WIyWlLk6GJQsqaUBKTNV-1" source="pNnEN6fRzk_LjwezDTRE-96" target="pNnEN6fRzk_LjwezDTRE-97">
          <mxGeometry relative="1" as="geometry">
            <Array as="points">
              <mxPoint x="743" y="1560" />
            </Array>
          </mxGeometry>
        </mxCell>
        <mxCell id="pNnEN6fRzk_LjwezDTRE-96" value="&lt;div&gt;Admin Details&lt;/div&gt;&lt;div&gt;*Submit*&lt;br&gt;&lt;/div&gt;" style="rounded=1;whiteSpace=wrap;html=1;" vertex="1" parent="WIyWlLk6GJQsqaUBKTNV-1">
          <mxGeometry x="624" y="1540" width="76" height="40" as="geometry" />
        </mxCell>
        <mxCell id="pNnEN6fRzk_LjwezDTRE-97" value="&lt;div&gt;Complete&lt;/div&gt;&lt;div&gt;Thank you&lt;br&gt;&lt;/div&gt;" style="rounded=1;whiteSpace=wrap;html=1;" vertex="1" parent="WIyWlLk6GJQsqaUBKTNV-1">
          <mxGeometry x="700" y="1580" width="76" height="40" as="geometry" />
        </mxCell>
        <mxCell id="pNnEN6fRzk_LjwezDTRE-98" style="edgeStyle=orthogonalEdgeStyle;rounded=0;orthogonalLoop=1;jettySize=auto;html=1;" edge="1" parent="WIyWlLk6GJQsqaUBKTNV-1" source="pNnEN6fRzk_LjwezDTRE-99">
          <mxGeometry relative="1" as="geometry">
            <mxPoint x="420" y="1700" as="targetPoint" />
            <Array as="points">
              <mxPoint x="700" y="1750" />
              <mxPoint x="700" y="1720" />
              <mxPoint x="470" y="1720" />
              <mxPoint x="470" y="1700" />
            </Array>
          </mxGeometry>
        </mxCell>
        <mxCell id="pNnEN6fRzk_LjwezDTRE-99" value="&lt;div&gt;Complete&lt;/div&gt;&lt;div&gt;Thank You&lt;br&gt;&lt;/div&gt;" style="rounded=1;whiteSpace=wrap;html=1;" vertex="1" parent="WIyWlLk6GJQsqaUBKTNV-1">
          <mxGeometry x="710" y="1730" width="90" height="40" as="geometry" />
        </mxCell>
        <mxCell id="pNnEN6fRzk_LjwezDTRE-109" value="Pending Authorise" style="rounded=1;whiteSpace=wrap;html=1;" vertex="1" parent="WIyWlLk6GJQsqaUBKTNV-1">
          <mxGeometry x="770" y="480" width="120" height="40" as="geometry" />
        </mxCell>
        <mxCell id="pNnEN6fRzk_LjwezDTRE-110" value="Rejected Leads" style="rounded=1;whiteSpace=wrap;html=1;" vertex="1" parent="WIyWlLk6GJQsqaUBKTNV-1">
          <mxGeometry x="1007.5" y="480" width="120" height="40" as="geometry" />
        </mxCell>
        <mxCell id="pNnEN6fRzk_LjwezDTRE-113" value="Drawer" style="ellipse;whiteSpace=wrap;html=1;" vertex="1" parent="WIyWlLk6GJQsqaUBKTNV-1">
          <mxGeometry x="1175" y="230" width="90" height="60" as="geometry" />
        </mxCell>
        <mxCell id="pNnEN6fRzk_LjwezDTRE-115" value="Popup" style="ellipse;whiteSpace=wrap;html=1;" vertex="1" parent="WIyWlLk6GJQsqaUBKTNV-1">
          <mxGeometry x="1370" y="150" width="90" height="60" as="geometry" />
        </mxCell>
        <mxCell id="pNnEN6fRzk_LjwezDTRE-117" value="Rejected Leads" style="rounded=1;whiteSpace=wrap;html=1;" vertex="1" parent="WIyWlLk6GJQsqaUBKTNV-1">
          <mxGeometry x="880" y="320" width="120" height="40" as="geometry" />
        </mxCell>
      </root>
    </mxGraphModel>
  </diagram>
</mxfile>
